<svg width="1200" height="800" viewBox="0 0 1200 800" fill="none" xmlns="http://www.w3.org/2000/svg">
  <defs>
    <linearGradient id="prodSaree" x1="0" y1="0" x2="1" y2="1">
      <stop offset="0%" stop-color="#FDECE7" />
      <stop offset="100%" stop-color="#FBD8D1" />
    </linearGradient>
  </defs>
  <rect width="1200" height="800" rx="60" fill="url(#prodSaree)" />
  <path d="M320 210C320 210 290 130 390 130C490 130 460 210 460 210" fill="#FFFFFF" />
  <path d="M390 130C410 170 470 190 510 245L530 550C530 590 490 620 450 620H390C350 620 320 590 320 550V245Z" fill="#FFF4F3" stroke="#D69B92" stroke-width="28" />
  <path d="M380 550C390 590 430 620 470 620H510C550 620 590 590 600 550" stroke="#D69B92" stroke-width="22" stroke-linecap="round" />
  <circle cx="900" cy="220" r="90" fill="#FFF2F1" />
  <path d="M870 220C870 220 890 245 900 245C910 245 930 220 930 220" stroke="#D69B92" stroke-width="18" stroke-linecap="round" />
</svg>
